<svg width="68" height="54" viewBox="0 0 68 54" fill="none" xmlns="http://www.w3.org/2000/svg">
<path d="M2.68837 53.168V49.2802C8.17054 47.2703 12.4667 44.0966 15.5767 39.7593C18.6868 35.4749 20.2419 31.0053 20.2419 26.3506C20.2419 25.3456 20.0837 24.6051 19.7674 24.129C19.5566 23.8117 19.3194 23.653 19.0558 23.653C18.7922 23.653 18.3969 23.8381 17.8698 24.2084C16.1829 25.425 14.0481 26.0332 11.4651 26.0332C8.46046 26.0332 5.79845 24.7902 3.47906 22.3042C1.15969 19.8711 0 16.9619 0 13.5767C0 10.0327 1.34418 6.91198 4.03256 4.21438C6.66822 1.51677 9.88372 0.167969 13.6791 0.167969C18.107 0.167969 21.9287 1.99282 25.1442 5.64252C28.3597 9.29222 29.9674 14.1849 29.9674 20.3207C29.9674 27.4614 27.7798 33.8616 23.4047 39.5213C19.0295 45.1809 12.124 49.7298 2.68837 53.168ZM40.7209 53.168V49.2802C46.2031 47.2703 50.4992 44.0966 53.6093 39.7593C56.7194 35.4749 58.2744 31.0053 58.2744 26.3506C58.2744 25.3456 58.1163 24.6051 57.8 24.129C57.5891 23.8117 57.3519 23.653 57.0884 23.653C56.8248 23.653 56.4295 23.8381 55.9023 24.2084C54.2155 25.425 52.0806 26.0332 49.4977 26.0332C46.493 26.0332 43.831 24.7902 41.5116 22.3042C39.1922 19.8711 38.0326 16.9619 38.0326 13.5767C38.0326 10.0327 39.3767 6.91198 42.0651 4.21438C44.7008 1.51677 47.9163 0.167969 51.7116 0.167969C56.1395 0.167969 59.9612 1.99282 63.1767 5.64252C66.3922 9.29222 68 14.1849 68 20.3207C68 27.4614 65.8124 33.8616 61.4372 39.5213C57.062 45.1809 50.1566 49.7298 40.7209 53.168Z" fill="#363848"/>
</svg>
