<svg width="68" height="54" viewBox="0 0 68 54" fill="none" xmlns="http://www.w3.org/2000/svg">
<path d="M65.3116 0.167969V4.05569C59.8295 6.06567 55.5333 9.23933 52.4233 13.5767C49.3132 17.8611 47.7581 22.3306 47.7581 26.9853C47.7581 27.9903 47.9163 28.7308 48.2326 29.2069C48.4434 29.5243 48.6806 29.6829 48.9442 29.6829C49.2078 29.6829 49.6031 29.4978 50.1302 29.1275C51.8171 27.911 53.9519 27.3027 56.5349 27.3027C59.5395 27.3027 62.2016 28.5457 64.5209 31.0317C66.8403 33.4649 68 36.3741 68 39.7593C68 43.3032 66.6558 46.424 63.9674 49.1216C61.3318 51.8192 58.1163 53.168 54.3209 53.168C49.893 53.168 46.0713 51.3431 42.8558 47.6934C39.6403 44.0437 38.0326 39.151 38.0326 33.0153C38.0326 25.8746 40.2202 19.4744 44.5953 13.8147C48.9705 8.15499 55.876 3.60609 65.3116 0.167969ZM27.2791 0.167969V4.05569C21.7969 6.06567 17.5008 9.23933 14.3907 13.5767C11.2806 17.8611 9.72558 22.3306 9.72558 26.9853C9.72558 27.9903 9.88372 28.7308 10.2 29.2069C10.4109 29.5243 10.6481 29.6829 10.9116 29.6829C11.1752 29.6829 11.5705 29.4978 12.0977 29.1275C13.7845 27.911 15.9194 27.3027 18.5023 27.3027C21.507 27.3027 24.169 28.5457 26.4884 31.0317C28.8078 33.4649 29.9674 36.3741 29.9674 39.7593C29.9674 43.3032 28.6233 46.424 25.9349 49.1216C23.2992 51.8192 20.0837 53.168 16.2884 53.168C11.8605 53.168 8.03876 51.3431 4.82326 47.6934C1.60775 44.0437 0 39.151 0 33.0153C0 25.8746 2.1876 19.4744 6.56279 13.8147C10.938 8.15499 17.8434 3.60609 27.2791 0.167969Z" fill="#363848"/>
</svg>
