<svg
  className="play_button"
  id="Layer_2"
  data-name="Layer 2"
  xmlns="http://www.w3.org/2000/svg"
  viewBox="0 0 383.23 383.22"
>
  <g id="Layer_1-2" data-name="Layer 1">
    <g>
      <path
        fill="#fff"
        d="m0,179.62c.98-7.14,1.68-14.34,2.98-21.42,9.24-50.22,34.52-90.58,75.38-121.07C106.27,16.31,137.8,4.21,172.42.96c50.74-4.76,96.77,8.14,136.96,39.63,40.92,32.07,65.3,74.23,72.15,125.8,12.89,97.03-48.81,187.41-143.74,211.12-10.1,2.52-20.62,3.41-30.94,5.06-1.09.17-2.16.43-3.25.65h-23.95c-2.45-.31-4.9-.65-7.35-.91-34.55-3.76-66.11-15.47-93.99-36.3C37.5,315.52,12.21,275.19,2.98,224.99c-1.3-7.08-2-14.28-2.98-21.42,0-7.98,0-15.97,0-23.95Zm19.22,11.84c-.1,95.27,77.04,172.5,172.36,172.55,95.14.06,172.16-76.81,172.45-172.09.29-95.22-76.73-172.48-172.17-172.74-95.18-.25-172.53,76.94-172.63,172.27Z"
      ></path>
      <path
        fill="#fff"
        d="m263.25,191.59c-42.26-28.17-83.69-55.8-125.68-83.79v167.58c42.04-28.03,83.47-55.65,125.68-83.79Z"
      ></path>
    </g>
  </g>
</svg>
